<svg width="15" height="14" viewBox="0 0 15 14" fill="none" xmlns="http://www.w3.org/2000/svg">
<path d="M14.5 7C14.5 10.866 11.366 14 7.5 14C3.63401 14 0.5 10.866 0.5 7C0.5 3.13401 3.63401 0 7.5 0C11.366 0 14.5 3.13401 14.5 7ZM7.04121 7.62362C7.05903 7.64052 7.07831 7.65631 7.09903 7.67082L9.96602 9.67831C10.0565 9.74167 10.1812 9.71968 10.2446 9.6292L10.7321 8.93292C10.7955 8.84244 10.7735 8.71773 10.683 8.65437L8.125 6.86325V3.75133C8.125 3.64087 8.03546 3.55133 7.925 3.55133H7.075C6.96454 3.55133 6.875 3.64087 6.875 3.75133V7.25134C6.875 7.39921 6.93918 7.53208 7.04121 7.62362Z" fill="#FF9417"/>
</svg>
