<svg width="251" height="105" viewBox="0 0 251 105" fill="none" xmlns="http://www.w3.org/2000/svg">
<g opacity="0.15">
<ellipse cx="4.18462" cy="100.74" rx="3.47368" ry="3.47368" transform="rotate(-90 4.18462 100.74)" fill="#B2B0FF"/>
<ellipse cx="20.3951" cy="100.74" rx="3.47368" ry="3.47368" transform="rotate(-90 20.3951 100.74)" fill="#B2B0FF"/>
<ellipse cx="36.6055" cy="100.74" rx="3.47368" ry="3.47368" transform="rotate(-90 36.6055 100.74)" fill="#B2B0FF"/>
<ellipse cx="52.816" cy="100.74" rx="3.47368" ry="3.47368" transform="rotate(-90 52.816 100.74)" fill="#B2B0FF"/>
<ellipse cx="69.0269" cy="100.74" rx="3.47368" ry="3.47368" transform="rotate(-90 69.0269 100.74)" fill="#B2B0FF"/>
<ellipse cx="85.2374" cy="100.74" rx="3.47368" ry="3.47368" transform="rotate(-90 85.2374 100.74)" fill="#B2B0FF"/>
<ellipse cx="101.448" cy="100.74" rx="3.47368" ry="3.47368" transform="rotate(-90 101.448 100.74)" fill="#B2B0FF"/>
<ellipse cx="117.658" cy="100.74" rx="3.47368" ry="3.47368" transform="rotate(-90 117.658 100.74)" fill="#B2B0FF"/>
<ellipse cx="133.869" cy="100.74" rx="3.47368" ry="3.47368" transform="rotate(-90 133.869 100.74)" fill="#B2B0FF"/>
<ellipse cx="150.079" cy="100.74" rx="3.47368" ry="3.47368" transform="rotate(-90 150.079 100.74)" fill="#B2B0FF"/>
<ellipse cx="166.29" cy="100.74" rx="3.47368" ry="3.47368" transform="rotate(-90 166.29 100.74)" fill="#B2B0FF"/>
<ellipse cx="182.501" cy="100.74" rx="3.47368" ry="3.47368" transform="rotate(-90 182.501 100.74)" fill="#B2B0FF"/>
<ellipse cx="198.711" cy="100.74" rx="3.47368" ry="3.47368" transform="rotate(-90 198.711 100.74)" fill="#B2B0FF"/>
<ellipse cx="214.921" cy="100.74" rx="3.47368" ry="3.47368" transform="rotate(-90 214.921 100.74)" fill="#B2B0FF"/>
<ellipse cx="231.132" cy="100.74" rx="3.47368" ry="3.47368" transform="rotate(-90 231.132 100.74)" fill="#B2B0FF"/>
<ellipse cx="247.342" cy="100.74" rx="3.47368" ry="3.47368" transform="rotate(-90 247.342 100.74)" fill="#B2B0FF"/>
<ellipse cx="4.18462" cy="84.529" rx="3.47368" ry="3.47368" transform="rotate(-90 4.18462 84.529)" fill="#B2B0FF"/>
<ellipse cx="20.3951" cy="84.529" rx="3.47368" ry="3.47368" transform="rotate(-90 20.3951 84.529)" fill="#B2B0FF"/>
<ellipse cx="36.6055" cy="84.529" rx="3.47368" ry="3.47368" transform="rotate(-90 36.6055 84.529)" fill="#B2B0FF"/>
<ellipse cx="52.816" cy="84.529" rx="3.47368" ry="3.47368" transform="rotate(-90 52.816 84.529)" fill="#B2B0FF"/>
<ellipse cx="69.0269" cy="84.529" rx="3.47368" ry="3.47368" transform="rotate(-90 69.0269 84.529)" fill="#B2B0FF"/>
<ellipse cx="85.2374" cy="84.529" rx="3.47368" ry="3.47368" transform="rotate(-90 85.2374 84.529)" fill="#B2B0FF"/>
<ellipse cx="101.448" cy="84.529" rx="3.47368" ry="3.47368" transform="rotate(-90 101.448 84.529)" fill="#B2B0FF"/>
<ellipse cx="117.658" cy="84.529" rx="3.47368" ry="3.47368" transform="rotate(-90 117.658 84.529)" fill="#B2B0FF"/>
<ellipse cx="133.869" cy="84.529" rx="3.47368" ry="3.47368" transform="rotate(-90 133.869 84.529)" fill="#B2B0FF"/>
<ellipse cx="150.079" cy="84.529" rx="3.47368" ry="3.47368" transform="rotate(-90 150.079 84.529)" fill="#B2B0FF"/>
<ellipse cx="166.29" cy="84.529" rx="3.47368" ry="3.47368" transform="rotate(-90 166.29 84.529)" fill="#B2B0FF"/>
<ellipse cx="182.501" cy="84.529" rx="3.47368" ry="3.47368" transform="rotate(-90 182.501 84.529)" fill="#B2B0FF"/>
<ellipse cx="198.711" cy="84.529" rx="3.47368" ry="3.47368" transform="rotate(-90 198.711 84.529)" fill="#B2B0FF"/>
<ellipse cx="214.921" cy="84.529" rx="3.47368" ry="3.47368" transform="rotate(-90 214.921 84.529)" fill="#B2B0FF"/>
<ellipse cx="231.132" cy="84.529" rx="3.47368" ry="3.47368" transform="rotate(-90 231.132 84.529)" fill="#B2B0FF"/>
<ellipse cx="247.342" cy="84.529" rx="3.47368" ry="3.47368" transform="rotate(-90 247.342 84.529)" fill="#B2B0FF"/>
<ellipse cx="4.18462" cy="68.3185" rx="3.47368" ry="3.47368" transform="rotate(-90 4.18462 68.3185)" fill="#B2B0FF"/>
<ellipse cx="20.3951" cy="68.3185" rx="3.47368" ry="3.47368" transform="rotate(-90 20.3951 68.3185)" fill="#B2B0FF"/>
<ellipse cx="36.6055" cy="68.3185" rx="3.47368" ry="3.47368" transform="rotate(-90 36.6055 68.3185)" fill="#B2B0FF"/>
<ellipse cx="52.816" cy="68.3185" rx="3.47368" ry="3.47368" transform="rotate(-90 52.816 68.3185)" fill="#B2B0FF"/>
<ellipse cx="69.0269" cy="68.3185" rx="3.47368" ry="3.47368" transform="rotate(-90 69.0269 68.3185)" fill="#B2B0FF"/>
<ellipse cx="85.2374" cy="68.3185" rx="3.47368" ry="3.47368" transform="rotate(-90 85.2374 68.3185)" fill="#B2B0FF"/>
<ellipse cx="101.448" cy="68.3185" rx="3.47368" ry="3.47368" transform="rotate(-90 101.448 68.3185)" fill="#B2B0FF"/>
<ellipse cx="117.658" cy="68.3185" rx="3.47368" ry="3.47368" transform="rotate(-90 117.658 68.3185)" fill="#B2B0FF"/>
<ellipse cx="133.869" cy="68.3185" rx="3.47368" ry="3.47368" transform="rotate(-90 133.869 68.3185)" fill="#B2B0FF"/>
<ellipse cx="150.079" cy="68.3185" rx="3.47368" ry="3.47368" transform="rotate(-90 150.079 68.3185)" fill="#B2B0FF"/>
<ellipse cx="166.29" cy="68.3185" rx="3.47368" ry="3.47368" transform="rotate(-90 166.29 68.3185)" fill="#B2B0FF"/>
<ellipse cx="182.501" cy="68.3185" rx="3.47368" ry="3.47368" transform="rotate(-90 182.501 68.3185)" fill="#B2B0FF"/>
<ellipse cx="198.711" cy="68.3185" rx="3.47368" ry="3.47368" transform="rotate(-90 198.711 68.3185)" fill="#B2B0FF"/>
<ellipse cx="214.921" cy="68.3185" rx="3.47368" ry="3.47368" transform="rotate(-90 214.921 68.3185)" fill="#B2B0FF"/>
<ellipse cx="231.132" cy="68.3185" rx="3.47368" ry="3.47368" transform="rotate(-90 231.132 68.3185)" fill="#B2B0FF"/>
<ellipse cx="247.342" cy="68.3185" rx="3.47368" ry="3.47368" transform="rotate(-90 247.342 68.3185)" fill="#B2B0FF"/>
<ellipse cx="4.18462" cy="52.108" rx="3.47368" ry="3.47368" transform="rotate(-90 4.18462 52.108)" fill="#B2B0FF"/>
<ellipse cx="20.3951" cy="52.108" rx="3.47368" ry="3.47368" transform="rotate(-90 20.3951 52.108)" fill="#B2B0FF"/>
<ellipse cx="36.6055" cy="52.108" rx="3.47368" ry="3.47368" transform="rotate(-90 36.6055 52.108)" fill="#B2B0FF"/>
<ellipse cx="52.816" cy="52.108" rx="3.47368" ry="3.47368" transform="rotate(-90 52.816 52.108)" fill="#B2B0FF"/>
<ellipse cx="69.0269" cy="52.108" rx="3.47368" ry="3.47368" transform="rotate(-90 69.0269 52.108)" fill="#B2B0FF"/>
<ellipse cx="85.2374" cy="52.108" rx="3.47368" ry="3.47368" transform="rotate(-90 85.2374 52.108)" fill="#B2B0FF"/>
<ellipse cx="101.448" cy="52.108" rx="3.47368" ry="3.47368" transform="rotate(-90 101.448 52.108)" fill="#B2B0FF"/>
<ellipse cx="117.658" cy="52.108" rx="3.47368" ry="3.47368" transform="rotate(-90 117.658 52.108)" fill="#B2B0FF"/>
<ellipse cx="133.869" cy="52.108" rx="3.47368" ry="3.47368" transform="rotate(-90 133.869 52.108)" fill="#B2B0FF"/>
<ellipse cx="150.079" cy="52.108" rx="3.47368" ry="3.47368" transform="rotate(-90 150.079 52.108)" fill="#B2B0FF"/>
<ellipse cx="166.29" cy="52.108" rx="3.47368" ry="3.47368" transform="rotate(-90 166.29 52.108)" fill="#B2B0FF"/>
<ellipse cx="182.501" cy="52.108" rx="3.47368" ry="3.47368" transform="rotate(-90 182.501 52.108)" fill="#B2B0FF"/>
<ellipse cx="198.711" cy="52.108" rx="3.47368" ry="3.47368" transform="rotate(-90 198.711 52.108)" fill="#B2B0FF"/>
<ellipse cx="214.921" cy="52.108" rx="3.47368" ry="3.47368" transform="rotate(-90 214.921 52.108)" fill="#B2B0FF"/>
<ellipse cx="231.132" cy="52.108" rx="3.47368" ry="3.47368" transform="rotate(-90 231.132 52.108)" fill="#B2B0FF"/>
<ellipse cx="247.342" cy="52.108" rx="3.47368" ry="3.47368" transform="rotate(-90 247.342 52.108)" fill="#B2B0FF"/>
<ellipse cx="4.18462" cy="35.8975" rx="3.47368" ry="3.47368" transform="rotate(-90 4.18462 35.8975)" fill="#B2B0FF"/>
<ellipse cx="20.3951" cy="35.8975" rx="3.47368" ry="3.47368" transform="rotate(-90 20.3951 35.8975)" fill="#B2B0FF"/>
<ellipse cx="36.6055" cy="35.8975" rx="3.47368" ry="3.47368" transform="rotate(-90 36.6055 35.8975)" fill="#B2B0FF"/>
<ellipse cx="52.816" cy="35.8975" rx="3.47368" ry="3.47368" transform="rotate(-90 52.816 35.8975)" fill="#B2B0FF"/>
<ellipse cx="69.0269" cy="35.8975" rx="3.47368" ry="3.47368" transform="rotate(-90 69.0269 35.8975)" fill="#B2B0FF"/>
<ellipse cx="85.2374" cy="35.8975" rx="3.47368" ry="3.47368" transform="rotate(-90 85.2374 35.8975)" fill="#B2B0FF"/>
<ellipse cx="101.448" cy="35.8975" rx="3.47368" ry="3.47368" transform="rotate(-90 101.448 35.8975)" fill="#B2B0FF"/>
<ellipse cx="117.658" cy="35.8975" rx="3.47368" ry="3.47368" transform="rotate(-90 117.658 35.8975)" fill="#B2B0FF"/>
<ellipse cx="133.869" cy="35.8975" rx="3.47368" ry="3.47368" transform="rotate(-90 133.869 35.8975)" fill="#B2B0FF"/>
<ellipse cx="150.079" cy="35.8975" rx="3.47368" ry="3.47368" transform="rotate(-90 150.079 35.8975)" fill="#B2B0FF"/>
<ellipse cx="166.29" cy="35.8975" rx="3.47368" ry="3.47368" transform="rotate(-90 166.29 35.8975)" fill="#B2B0FF"/>
<ellipse cx="182.501" cy="35.8975" rx="3.47368" ry="3.47368" transform="rotate(-90 182.501 35.8975)" fill="#B2B0FF"/>
<ellipse cx="198.711" cy="35.8975" rx="3.47368" ry="3.47368" transform="rotate(-90 198.711 35.8975)" fill="#B2B0FF"/>
<ellipse cx="214.921" cy="35.8975" rx="3.47368" ry="3.47368" transform="rotate(-90 214.921 35.8975)" fill="#B2B0FF"/>
<ellipse cx="231.132" cy="35.8975" rx="3.47368" ry="3.47368" transform="rotate(-90 231.132 35.8975)" fill="#B2B0FF"/>
<ellipse cx="247.342" cy="35.8975" rx="3.47368" ry="3.47368" transform="rotate(-90 247.342 35.8975)" fill="#B2B0FF"/>
<ellipse cx="4.18462" cy="19.6869" rx="3.47368" ry="3.47368" transform="rotate(-90 4.18462 19.6869)" fill="#B2B0FF"/>
<ellipse cx="20.3951" cy="19.6869" rx="3.47368" ry="3.47368" transform="rotate(-90 20.3951 19.6869)" fill="#B2B0FF"/>
<ellipse cx="36.6055" cy="19.6869" rx="3.47368" ry="3.47368" transform="rotate(-90 36.6055 19.6869)" fill="#B2B0FF"/>
<ellipse cx="52.816" cy="19.6869" rx="3.47368" ry="3.47368" transform="rotate(-90 52.816 19.6869)" fill="#B2B0FF"/>
<ellipse cx="69.0269" cy="19.6869" rx="3.47368" ry="3.47368" transform="rotate(-90 69.0269 19.6869)" fill="#B2B0FF"/>
<ellipse cx="85.2374" cy="19.6869" rx="3.47368" ry="3.47368" transform="rotate(-90 85.2374 19.6869)" fill="#B2B0FF"/>
<ellipse cx="101.448" cy="19.6869" rx="3.47368" ry="3.47368" transform="rotate(-90 101.448 19.6869)" fill="#B2B0FF"/>
<ellipse cx="117.658" cy="19.6869" rx="3.47368" ry="3.47368" transform="rotate(-90 117.658 19.6869)" fill="#B2B0FF"/>
<ellipse cx="133.869" cy="19.6869" rx="3.47368" ry="3.47368" transform="rotate(-90 133.869 19.6869)" fill="#B2B0FF"/>
<ellipse cx="150.079" cy="19.6869" rx="3.47368" ry="3.47368" transform="rotate(-90 150.079 19.6869)" fill="#B2B0FF"/>
<ellipse cx="166.29" cy="19.6869" rx="3.47368" ry="3.47368" transform="rotate(-90 166.29 19.6869)" fill="#B2B0FF"/>
<ellipse cx="182.501" cy="19.6869" rx="3.47368" ry="3.47368" transform="rotate(-90 182.501 19.6869)" fill="#B2B0FF"/>
<ellipse cx="198.711" cy="19.6869" rx="3.47368" ry="3.47368" transform="rotate(-90 198.711 19.6869)" fill="#B2B0FF"/>
<ellipse cx="214.921" cy="19.6869" rx="3.47368" ry="3.47368" transform="rotate(-90 214.921 19.6869)" fill="#B2B0FF"/>
<ellipse cx="231.132" cy="19.6869" rx="3.47368" ry="3.47368" transform="rotate(-90 231.132 19.6869)" fill="#B2B0FF"/>
<ellipse cx="247.342" cy="19.6869" rx="3.47368" ry="3.47368" transform="rotate(-90 247.342 19.6869)" fill="#B2B0FF"/>
<ellipse cx="4.18462" cy="3.47642" rx="3.47368" ry="3.47368" transform="rotate(-90 4.18462 3.47642)" fill="#B2B0FF"/>
<ellipse cx="20.3951" cy="3.47642" rx="3.47368" ry="3.47368" transform="rotate(-90 20.3951 3.47642)" fill="#B2B0FF"/>
<ellipse cx="36.6055" cy="3.47642" rx="3.47368" ry="3.47368" transform="rotate(-90 36.6055 3.47642)" fill="#B2B0FF"/>
<ellipse cx="52.816" cy="3.47642" rx="3.47368" ry="3.47368" transform="rotate(-90 52.816 3.47642)" fill="#B2B0FF"/>
<ellipse cx="69.0269" cy="3.47642" rx="3.47368" ry="3.47368" transform="rotate(-90 69.0269 3.47642)" fill="#B2B0FF"/>
<ellipse cx="85.2374" cy="3.47642" rx="3.47368" ry="3.47368" transform="rotate(-90 85.2374 3.47642)" fill="#B2B0FF"/>
<ellipse cx="101.448" cy="3.47641" rx="3.47368" ry="3.47368" transform="rotate(-90 101.448 3.47641)" fill="#B2B0FF"/>
<ellipse cx="117.658" cy="3.47641" rx="3.47368" ry="3.47368" transform="rotate(-90 117.658 3.47641)" fill="#B2B0FF"/>
<ellipse cx="133.869" cy="3.47641" rx="3.47368" ry="3.47368" transform="rotate(-90 133.869 3.47641)" fill="#B2B0FF"/>
<ellipse cx="150.079" cy="3.47641" rx="3.47368" ry="3.47368" transform="rotate(-90 150.079 3.47641)" fill="#B2B0FF"/>
<ellipse cx="166.29" cy="3.47641" rx="3.47368" ry="3.47368" transform="rotate(-90 166.29 3.47641)" fill="#B2B0FF"/>
<ellipse cx="182.501" cy="3.47641" rx="3.47368" ry="3.47368" transform="rotate(-90 182.501 3.47641)" fill="#B2B0FF"/>
<ellipse cx="198.711" cy="3.47641" rx="3.47368" ry="3.47368" transform="rotate(-90 198.711 3.47641)" fill="#B2B0FF"/>
<ellipse cx="214.921" cy="3.47641" rx="3.47368" ry="3.47368" transform="rotate(-90 214.921 3.47641)" fill="#B2B0FF"/>
<ellipse cx="231.132" cy="3.47641" rx="3.47368" ry="3.47368" transform="rotate(-90 231.132 3.47641)" fill="#B2B0FF"/>
<ellipse cx="247.342" cy="3.47641" rx="3.47368" ry="3.47368" transform="rotate(-90 247.342 3.47641)" fill="#B2B0FF"/>
</g>
</svg>
