<svg width="73" height="105" viewBox="0 0 73 105" fill="none" xmlns="http://www.w3.org/2000/svg">
<g opacity="0.18">
<ellipse cx="3.79595" cy="101.526" rx="3.47368" ry="3.47368" transform="rotate(-90 3.79595 101.526)" fill="#B2B0FF"/>
<ellipse cx="20.0064" cy="101.526" rx="3.47368" ry="3.47368" transform="rotate(-90 20.0064 101.526)" fill="#B2B0FF"/>
<ellipse cx="36.2168" cy="101.526" rx="3.47368" ry="3.47368" transform="rotate(-90 36.2168 101.526)" fill="#B2B0FF"/>
<ellipse cx="52.4273" cy="101.526" rx="3.47368" ry="3.47368" transform="rotate(-90 52.4273 101.526)" fill="#B2B0FF"/>
<ellipse cx="68.6382" cy="101.526" rx="3.47368" ry="3.47368" transform="rotate(-90 68.6382 101.526)" fill="#B2B0FF"/>
<ellipse cx="3.79595" cy="85.3159" rx="3.47368" ry="3.47368" transform="rotate(-90 3.79595 85.3159)" fill="#B2B0FF"/>
<ellipse cx="20.0064" cy="85.3159" rx="3.47368" ry="3.47368" transform="rotate(-90 20.0064 85.3159)" fill="#B2B0FF"/>
<ellipse cx="36.2168" cy="85.3159" rx="3.47368" ry="3.47368" transform="rotate(-90 36.2168 85.3159)" fill="#B2B0FF"/>
<ellipse cx="52.4273" cy="85.3159" rx="3.47368" ry="3.47368" transform="rotate(-90 52.4273 85.3159)" fill="#B2B0FF"/>
<ellipse cx="68.6382" cy="85.3159" rx="3.47368" ry="3.47368" transform="rotate(-90 68.6382 85.3159)" fill="#B2B0FF"/>
<ellipse cx="3.79595" cy="69.1053" rx="3.47368" ry="3.47368" transform="rotate(-90 3.79595 69.1053)" fill="#B2B0FF"/>
<ellipse cx="20.0064" cy="69.1053" rx="3.47368" ry="3.47368" transform="rotate(-90 20.0064 69.1053)" fill="#B2B0FF"/>
<ellipse cx="36.2168" cy="69.1053" rx="3.47368" ry="3.47368" transform="rotate(-90 36.2168 69.1053)" fill="#B2B0FF"/>
<ellipse cx="52.4273" cy="69.1053" rx="3.47368" ry="3.47368" transform="rotate(-90 52.4273 69.1053)" fill="#B2B0FF"/>
<ellipse cx="68.6382" cy="69.1053" rx="3.47368" ry="3.47368" transform="rotate(-90 68.6382 69.1053)" fill="#B2B0FF"/>
<ellipse cx="3.79595" cy="52.8948" rx="3.47368" ry="3.47368" transform="rotate(-90 3.79595 52.8948)" fill="#B2B0FF"/>
<ellipse cx="20.0064" cy="52.8948" rx="3.47368" ry="3.47368" transform="rotate(-90 20.0064 52.8948)" fill="#B2B0FF"/>
<ellipse cx="36.2168" cy="52.8948" rx="3.47368" ry="3.47368" transform="rotate(-90 36.2168 52.8948)" fill="#B2B0FF"/>
<ellipse cx="52.4273" cy="52.8948" rx="3.47368" ry="3.47368" transform="rotate(-90 52.4273 52.8948)" fill="#B2B0FF"/>
<ellipse cx="68.6382" cy="52.8948" rx="3.47368" ry="3.47368" transform="rotate(-90 68.6382 52.8948)" fill="#B2B0FF"/>
<ellipse cx="3.79595" cy="36.6843" rx="3.47368" ry="3.47368" transform="rotate(-90 3.79595 36.6843)" fill="#B2B0FF"/>
<ellipse cx="20.0064" cy="36.6843" rx="3.47368" ry="3.47368" transform="rotate(-90 20.0064 36.6843)" fill="#B2B0FF"/>
<ellipse cx="36.2168" cy="36.6843" rx="3.47368" ry="3.47368" transform="rotate(-90 36.2168 36.6843)" fill="#B2B0FF"/>
<ellipse cx="52.4273" cy="36.6843" rx="3.47368" ry="3.47368" transform="rotate(-90 52.4273 36.6843)" fill="#B2B0FF"/>
<ellipse cx="68.6382" cy="36.6843" rx="3.47368" ry="3.47368" transform="rotate(-90 68.6382 36.6843)" fill="#B2B0FF"/>
<ellipse cx="3.79595" cy="20.4738" rx="3.47368" ry="3.47368" transform="rotate(-90 3.79595 20.4738)" fill="#B2B0FF"/>
<ellipse cx="20.0064" cy="20.4738" rx="3.47368" ry="3.47368" transform="rotate(-90 20.0064 20.4738)" fill="#B2B0FF"/>
<ellipse cx="36.2168" cy="20.4738" rx="3.47368" ry="3.47368" transform="rotate(-90 36.2168 20.4738)" fill="#B2B0FF"/>
<ellipse cx="52.4273" cy="20.4738" rx="3.47368" ry="3.47368" transform="rotate(-90 52.4273 20.4738)" fill="#B2B0FF"/>
<ellipse cx="68.6382" cy="20.4738" rx="3.47368" ry="3.47368" transform="rotate(-90 68.6382 20.4738)" fill="#B2B0FF"/>
<ellipse cx="3.79595" cy="4.26322" rx="3.47368" ry="3.47368" transform="rotate(-90 3.79595 4.26322)" fill="#B2B0FF"/>
<ellipse cx="20.0064" cy="4.26319" rx="3.47368" ry="3.47368" transform="rotate(-90 20.0064 4.26319)" fill="#B2B0FF"/>
<ellipse cx="36.2168" cy="4.26319" rx="3.47368" ry="3.47368" transform="rotate(-90 36.2168 4.26319)" fill="#B2B0FF"/>
<ellipse cx="52.4273" cy="4.26319" rx="3.47368" ry="3.47368" transform="rotate(-90 52.4273 4.26319)" fill="#B2B0FF"/>
<ellipse cx="68.6382" cy="4.26319" rx="3.47368" ry="3.47368" transform="rotate(-90 68.6382 4.26319)" fill="#B2B0FF"/>
</g>
</svg>
