<svg width="89" height="251" viewBox="0 0 89 251" fill="none" xmlns="http://www.w3.org/2000/svg">
<g opacity="0.15">
<ellipse cx="3.97368" cy="3.47368" rx="3.47368" ry="3.47368" fill="#B2B0FF"/>
<ellipse cx="3.97368" cy="19.6842" rx="3.47368" ry="3.47368" fill="#B2B0FF"/>
<ellipse cx="3.97368" cy="35.8947" rx="3.47368" ry="3.47368" fill="#B2B0FF"/>
<ellipse cx="3.97368" cy="52.1053" rx="3.47368" ry="3.47368" fill="#B2B0FF"/>
<ellipse cx="3.97368" cy="68.3158" rx="3.47368" ry="3.47368" fill="#B2B0FF"/>
<ellipse cx="3.97368" cy="84.5263" rx="3.47368" ry="3.47368" fill="#B2B0FF"/>
<ellipse cx="3.97368" cy="100.737" rx="3.47368" ry="3.47368" fill="#B2B0FF"/>
<ellipse cx="3.97368" cy="116.947" rx="3.47368" ry="3.47368" fill="#B2B0FF"/>
<ellipse cx="3.97368" cy="133.158" rx="3.47368" ry="3.47368" fill="#B2B0FF"/>
<ellipse cx="3.97368" cy="149.368" rx="3.47368" ry="3.47368" fill="#B2B0FF"/>
<ellipse cx="3.97368" cy="165.579" rx="3.47368" ry="3.47368" fill="#B2B0FF"/>
<ellipse cx="3.97368" cy="181.789" rx="3.47368" ry="3.47368" fill="#B2B0FF"/>
<ellipse cx="3.97368" cy="198" rx="3.47368" ry="3.47368" fill="#B2B0FF"/>
<ellipse cx="3.97368" cy="214.211" rx="3.47368" ry="3.47368" fill="#B2B0FF"/>
<ellipse cx="3.97368" cy="230.421" rx="3.47368" ry="3.47368" fill="#B2B0FF"/>
<ellipse cx="3.97368" cy="246.632" rx="3.47368" ry="3.47368" fill="#B2B0FF"/>
<ellipse cx="20.1841" cy="3.47368" rx="3.47368" ry="3.47368" fill="#B2B0FF"/>
<ellipse cx="20.1841" cy="19.6842" rx="3.47368" ry="3.47368" fill="#B2B0FF"/>
<ellipse cx="20.1841" cy="35.8947" rx="3.47368" ry="3.47368" fill="#B2B0FF"/>
<ellipse cx="20.1841" cy="52.1053" rx="3.47368" ry="3.47368" fill="#B2B0FF"/>
<ellipse cx="20.1841" cy="68.3158" rx="3.47368" ry="3.47368" fill="#B2B0FF"/>
<ellipse cx="20.1841" cy="84.5263" rx="3.47368" ry="3.47368" fill="#B2B0FF"/>
<ellipse cx="20.1841" cy="100.737" rx="3.47368" ry="3.47368" fill="#B2B0FF"/>
<ellipse cx="20.1841" cy="116.947" rx="3.47368" ry="3.47368" fill="#B2B0FF"/>
<ellipse cx="20.1841" cy="133.158" rx="3.47368" ry="3.47368" fill="#B2B0FF"/>
<ellipse cx="20.1841" cy="149.368" rx="3.47368" ry="3.47368" fill="#B2B0FF"/>
<ellipse cx="20.1841" cy="165.579" rx="3.47368" ry="3.47368" fill="#B2B0FF"/>
<ellipse cx="20.1841" cy="181.789" rx="3.47368" ry="3.47368" fill="#B2B0FF"/>
<ellipse cx="20.1841" cy="198" rx="3.47368" ry="3.47368" fill="#B2B0FF"/>
<ellipse cx="20.1841" cy="214.211" rx="3.47368" ry="3.47368" fill="#B2B0FF"/>
<ellipse cx="20.1841" cy="230.421" rx="3.47368" ry="3.47368" fill="#B2B0FF"/>
<ellipse cx="20.1841" cy="246.632" rx="3.47368" ry="3.47368" fill="#B2B0FF"/>
<ellipse cx="36.3946" cy="3.47368" rx="3.47368" ry="3.47368" fill="#B2B0FF"/>
<ellipse cx="36.3946" cy="19.6842" rx="3.47368" ry="3.47368" fill="#B2B0FF"/>
<ellipse cx="36.3946" cy="35.8947" rx="3.47368" ry="3.47368" fill="#B2B0FF"/>
<ellipse cx="36.3946" cy="52.1053" rx="3.47368" ry="3.47368" fill="#B2B0FF"/>
<ellipse cx="36.3946" cy="68.3158" rx="3.47368" ry="3.47368" fill="#B2B0FF"/>
<ellipse cx="36.3946" cy="84.5263" rx="3.47368" ry="3.47368" fill="#B2B0FF"/>
<ellipse cx="36.3946" cy="100.737" rx="3.47368" ry="3.47368" fill="#B2B0FF"/>
<ellipse cx="36.3946" cy="116.947" rx="3.47368" ry="3.47368" fill="#B2B0FF"/>
<ellipse cx="36.3946" cy="133.158" rx="3.47368" ry="3.47368" fill="#B2B0FF"/>
<ellipse cx="36.3946" cy="149.368" rx="3.47368" ry="3.47368" fill="#B2B0FF"/>
<ellipse cx="36.3946" cy="165.579" rx="3.47368" ry="3.47368" fill="#B2B0FF"/>
<ellipse cx="36.3946" cy="181.789" rx="3.47368" ry="3.47368" fill="#B2B0FF"/>
<ellipse cx="36.3946" cy="198" rx="3.47368" ry="3.47368" fill="#B2B0FF"/>
<ellipse cx="36.3946" cy="214.211" rx="3.47368" ry="3.47368" fill="#B2B0FF"/>
<ellipse cx="36.3946" cy="230.421" rx="3.47368" ry="3.47368" fill="#B2B0FF"/>
<ellipse cx="36.3946" cy="246.632" rx="3.47368" ry="3.47368" fill="#B2B0FF"/>
<ellipse cx="52.605" cy="3.47368" rx="3.47368" ry="3.47368" fill="#B2B0FF"/>
<ellipse cx="52.605" cy="19.6842" rx="3.47368" ry="3.47368" fill="#B2B0FF"/>
<ellipse cx="52.605" cy="35.8947" rx="3.47368" ry="3.47368" fill="#B2B0FF"/>
<ellipse cx="52.605" cy="52.1053" rx="3.47368" ry="3.47368" fill="#B2B0FF"/>
<ellipse cx="52.605" cy="68.3158" rx="3.47368" ry="3.47368" fill="#B2B0FF"/>
<ellipse cx="52.605" cy="84.5263" rx="3.47368" ry="3.47368" fill="#B2B0FF"/>
<ellipse cx="52.605" cy="100.737" rx="3.47368" ry="3.47368" fill="#B2B0FF"/>
<ellipse cx="52.605" cy="116.947" rx="3.47368" ry="3.47368" fill="#B2B0FF"/>
<ellipse cx="52.605" cy="133.158" rx="3.47368" ry="3.47368" fill="#B2B0FF"/>
<ellipse cx="52.605" cy="149.368" rx="3.47368" ry="3.47368" fill="#B2B0FF"/>
<ellipse cx="52.605" cy="165.579" rx="3.47368" ry="3.47368" fill="#B2B0FF"/>
<ellipse cx="52.605" cy="181.789" rx="3.47368" ry="3.47368" fill="#B2B0FF"/>
<ellipse cx="52.605" cy="198" rx="3.47368" ry="3.47368" fill="#B2B0FF"/>
<ellipse cx="52.605" cy="214.211" rx="3.47368" ry="3.47368" fill="#B2B0FF"/>
<ellipse cx="52.605" cy="230.421" rx="3.47368" ry="3.47368" fill="#B2B0FF"/>
<ellipse cx="52.605" cy="246.632" rx="3.47368" ry="3.47368" fill="#B2B0FF"/>
<ellipse cx="68.816" cy="3.47368" rx="3.47368" ry="3.47368" fill="#B2B0FF"/>
<ellipse cx="68.816" cy="19.6842" rx="3.47368" ry="3.47368" fill="#B2B0FF"/>
<ellipse cx="68.816" cy="35.8947" rx="3.47368" ry="3.47368" fill="#B2B0FF"/>
<ellipse cx="68.816" cy="52.1053" rx="3.47368" ry="3.47368" fill="#B2B0FF"/>
<ellipse cx="68.816" cy="68.3158" rx="3.47368" ry="3.47368" fill="#B2B0FF"/>
<ellipse cx="68.816" cy="84.5263" rx="3.47368" ry="3.47368" fill="#B2B0FF"/>
<ellipse cx="68.816" cy="100.737" rx="3.47368" ry="3.47368" fill="#B2B0FF"/>
<ellipse cx="68.816" cy="116.947" rx="3.47368" ry="3.47368" fill="#B2B0FF"/>
<ellipse cx="68.816" cy="133.158" rx="3.47368" ry="3.47368" fill="#B2B0FF"/>
<ellipse cx="68.816" cy="149.368" rx="3.47368" ry="3.47368" fill="#B2B0FF"/>
<ellipse cx="68.816" cy="165.579" rx="3.47368" ry="3.47368" fill="#B2B0FF"/>
<ellipse cx="68.816" cy="181.789" rx="3.47368" ry="3.47368" fill="#B2B0FF"/>
<ellipse cx="68.816" cy="198" rx="3.47368" ry="3.47368" fill="#B2B0FF"/>
<ellipse cx="68.816" cy="214.211" rx="3.47368" ry="3.47368" fill="#B2B0FF"/>
<ellipse cx="68.816" cy="230.421" rx="3.47368" ry="3.47368" fill="#B2B0FF"/>
<ellipse cx="68.816" cy="246.632" rx="3.47368" ry="3.47368" fill="#B2B0FF"/>
<ellipse cx="85.0264" cy="3.47368" rx="3.47368" ry="3.47368" fill="#B2B0FF"/>
<ellipse cx="85.0264" cy="19.6842" rx="3.47368" ry="3.47368" fill="#B2B0FF"/>
<ellipse cx="85.0264" cy="35.8947" rx="3.47368" ry="3.47368" fill="#B2B0FF"/>
<ellipse cx="85.0264" cy="52.1053" rx="3.47368" ry="3.47368" fill="#B2B0FF"/>
<ellipse cx="85.0264" cy="68.3158" rx="3.47368" ry="3.47368" fill="#B2B0FF"/>
<ellipse cx="85.0264" cy="84.5263" rx="3.47368" ry="3.47368" fill="#B2B0FF"/>
<ellipse cx="85.0264" cy="100.737" rx="3.47368" ry="3.47368" fill="#B2B0FF"/>
<ellipse cx="85.0264" cy="116.947" rx="3.47368" ry="3.47368" fill="#B2B0FF"/>
<ellipse cx="85.0264" cy="133.158" rx="3.47368" ry="3.47368" fill="#B2B0FF"/>
<ellipse cx="85.0264" cy="149.368" rx="3.47368" ry="3.47368" fill="#B2B0FF"/>
<ellipse cx="85.0264" cy="165.579" rx="3.47368" ry="3.47368" fill="#B2B0FF"/>
<ellipse cx="85.0264" cy="181.789" rx="3.47368" ry="3.47368" fill="#B2B0FF"/>
<ellipse cx="85.0264" cy="198" rx="3.47368" ry="3.47368" fill="#B2B0FF"/>
<ellipse cx="85.0264" cy="214.211" rx="3.47368" ry="3.47368" fill="#B2B0FF"/>
<ellipse cx="85.0264" cy="230.421" rx="3.47368" ry="3.47368" fill="#B2B0FF"/>
<ellipse cx="85.0264" cy="246.632" rx="3.47368" ry="3.47368" fill="#B2B0FF"/>
</g>
</svg>
