<svg width="16" height="16" viewBox="0 0 16 16" fill="none" xmlns="http://www.w3.org/2000/svg">
<path d="M1.8252 13.675C1.8252 13.9512 2.04905 14.175 2.3252 14.175H8.68721C8.79767 14.175 8.88721 14.0855 8.88721 13.975V13.125C8.88721 13.0146 8.79767 12.925 8.68721 12.925H3.0752L3.0752 3.07504L8.68721 3.07504C8.79767 3.07504 8.88721 2.9855 8.88721 2.87504V2.02504C8.88721 1.91459 8.79767 1.82504 8.68721 1.82504H2.3252C2.04905 1.82504 1.8252 2.0489 1.8252 2.32504V13.675ZM11.0449 11.394C10.9667 11.4721 10.8401 11.4721 10.762 11.394L10.161 10.7929C10.0829 10.7148 10.0829 10.5882 10.161 10.5101L12.0461 8.625L4.4002 8.62499C4.28974 8.62499 4.2002 8.53545 4.2002 8.42499V7.57499C4.2002 7.46454 4.28974 7.37499 4.4002 7.37499L12.0461 7.375L10.1611 5.48992C10.083 5.41181 10.083 5.28518 10.1611 5.20707L10.7621 4.60603C10.8402 4.52793 10.9668 4.52793 11.0449 4.60603L14.0854 7.64632C14.1407 7.70165 14.1804 7.76673 14.2044 7.83603C14.2651 8.01133 14.2255 8.2137 14.0855 8.3537L11.0449 11.394Z" fill="#F53F3F"/>
</svg>
