<svg width="20" height="20" viewBox="0 0 20 20" fill="none" xmlns="http://www.w3.org/2000/svg">
<path d="M10.4418 2.06673C10.1977 1.82265 9.80196 1.82265 9.55788 2.06673L6.64106 4.98354C6.54343 5.08117 6.54343 5.23946 6.64106 5.33709L7.39236 6.0884C7.49 6.18603 7.64829 6.18603 7.74592 6.0884L9.21854 4.61578L9.21854 13.4438C9.21854 13.5819 9.33046 13.6938 9.46854 13.6938H10.531C10.6691 13.6938 10.781 13.5819 10.781 13.4438V4.61586L12.2538 6.08867C12.3515 6.1863 12.5098 6.1863 12.6074 6.08867L13.3587 5.33736C13.4563 5.23973 13.4563 5.08144 13.3587 4.98381L10.4418 2.06673ZM6.82812 8.78121C6.82812 8.91928 6.7162 9.03121 6.57812 9.03121H4.4375V16.7187H15.5625V9.03121H13.4219C13.2838 9.03121 13.1719 8.91928 13.1719 8.78121V7.71871C13.1719 7.58064 13.2838 7.46871 13.4219 7.46871H16.0938C16.6633 7.46871 17.125 7.93042 17.125 8.49996V17.25C17.125 17.8195 16.6633 18.2812 16.0938 18.2812H3.90625C3.3367 18.2812 2.875 17.8195 2.875 17.25V8.49996C2.875 7.93042 3.33671 7.46871 3.90625 7.46871H6.57812C6.7162 7.46871 6.82812 7.58064 6.82812 7.71871V8.78121Z" fill="#5D42FF"/>
</svg>
