<svg width="32" height="32" viewBox="0 0 32 32" fill="none" xmlns="http://www.w3.org/2000/svg">
<rect x="0.000732422" width="32" height="32" rx="5.33333" fill="#5B8EF4"/>
<path fill-rule="evenodd" clip-rule="evenodd" d="M15.2185 9.38342C12.4559 10.6042 10.7185 13.5899 11.73 16.5569C12.3416 18.3511 13.5742 19.6297 15.4021 20.2832C18.5986 21.4262 21.9353 18.9131 21.5611 15.6464C21.4022 14.258 20.7023 13.2009 19.2808 12.7634C18.2235 12.438 17.2115 12.59 16.3858 13.364C15.685 14.0202 15.4193 14.8284 15.7 15.7678C15.8549 16.2844 16.227 16.6058 16.7331 16.7592C17.1775 16.8934 17.5213 16.6991 17.7861 16.3275C17.7327 16.2377 17.6859 16.1394 17.6211 16.055C17.2755 15.6051 17.5557 14.9507 17.8545 14.6782C18.2605 14.3078 18.9181 14.2741 19.3501 14.5808C20.0509 15.0774 20.3696 16.3982 19.9887 17.2268C19.3515 18.613 17.7129 19.4199 16.2093 19.0273C13.8355 18.4076 12.6651 16.0465 13.4312 13.7641C14.4493 10.7313 17.8713 9.40475 20.7875 10.8594C23.145 12.0348 24.0201 14.0873 23.9261 16.5307C23.7721 20.5535 19.7425 23.5378 15.7018 22.7621C11.7829 22.0099 8.8729 18.2298 9.08164 14.655C9.15843 13.3351 9.45014 12.0992 10.1205 10.9652C11.8646 8.01594 14.5813 6.62802 17.9794 6.40351C18.874 6.34439 19.776 6.39462 20.6282 6.39507C20.5814 6.37417 20.4746 6.32127 20.3634 6.27948C18.704 5.65353 16.9891 5.45393 15.2318 5.70644C14.1422 5.84158 13.1364 6.13811 12.222 6.56222C12.2053 6.56489 12.1854 6.57067 12.1611 6.58089C11.7498 6.75738 11.681 6.35194 11.5349 6.22924C11.3928 6.1101 11.4113 6.25814 11.4113 6.25814C11.5353 6.85252 11.2247 7.09214 11.1827 7.12148C10.9237 7.28286 10.6752 7.45713 10.4352 7.64029C10.4281 7.6434 10.4228 7.6434 10.4153 7.64695C9.84821 7.90747 9.61254 7.46735 9.35173 7.33354C9.07591 7.19217 9.18006 7.42423 9.18006 7.42423C9.52163 8.10797 9.22684 8.69301 9.17167 8.7917C8.92983 9.05444 8.70344 9.33051 8.49161 9.61726C8.46954 9.63148 8.44792 9.64482 8.42276 9.66749C7.86583 10.1747 7.43246 9.7733 7.08823 9.69772C6.7087 9.61503 6.92362 9.86532 6.92362 9.86532C7.62575 10.5895 7.40377 11.4604 7.40377 11.4604L7.40553 11.4613C6.50349 13.4249 6.17957 15.6975 6.55424 17.979C7.78595 25.4784 16.9428 29.0202 22.9451 24.1891C24.8944 22.6203 26.2465 19.5981 26.3891 17.0979C26.4906 15.3223 25.9456 13.7108 24.9407 12.2517C22.8087 9.1558 18.5474 7.91236 15.2185 9.38342Z" fill="white"/>
</svg>
