<svg width="107" height="24" viewBox="0 0 107 24" fill="none" xmlns="http://www.w3.org/2000/svg">
<g clip-path="url(#clip0_12234_29655)">
<path d="M47.5881 7.20171C50.2368 7.20171 52.3881 9.35298 52.3881 12.0017C52.3881 14.6504 50.2368 16.8017 47.5881 16.8017C44.9393 16.8017 42.7881 14.6504 42.7881 12.0017C42.7881 9.35298 44.9393 7.20171 47.5881 7.20171ZM47.5881 5.45625C43.975 5.45625 41.0426 8.38862 41.0426 12.0017C41.0426 15.6148 43.975 18.5472 47.5881 18.5472C51.2011 18.5472 54.1335 15.6148 54.1335 12.0017C54.1335 8.38862 51.2011 5.45625 47.5881 5.45625Z" fill="#101114"/>
<path d="M95.1561 7.20171C95.6361 7.20171 96.0288 6.80898 96.0288 6.32898V5.45625H87.3015V18.5472H95.1561C95.6361 18.5472 96.0288 18.1544 96.0288 17.6744V16.8017H89.047V12.8744H95.1561V11.129H89.047V7.20171H95.1561Z" fill="#101114"/>
<path d="M71.588 5.45625H66.3517V7.20171H69.8426V18.5472H70.7153C71.1953 18.5472 71.588 18.1544 71.588 17.6744V7.20171H74.2062C74.6862 7.20171 75.079 6.80898 75.079 6.32898V5.45625H71.588Z" fill="#101114"/>
<path d="M34.9335 5.45627H30.5698V18.5472H31.4426C31.9226 18.5472 32.3153 18.1545 32.3153 17.6744V14.1835H34.9335C37.3422 14.1835 39.2971 12.2286 39.2971 9.8199C39.2971 7.41118 37.3422 5.45627 34.9335 5.45627ZM34.9335 12.4381H32.3153V7.20172H34.9335C36.3778 7.20172 37.5516 8.37554 37.5516 9.8199C37.5516 11.2643 36.3778 12.4381 34.9335 12.4381Z" fill="#101114"/>
<path d="M64.6062 9.81989C64.6062 7.41116 62.6513 5.45625 60.2425 5.45625H55.8789V18.5472H56.7516C57.2316 18.5472 57.6244 18.1544 57.6244 17.6744V14.1835H60.0724L62.5902 18.5472H64.6062L61.8964 13.8563C63.4847 13.2061 64.6062 11.6439 64.6062 9.81989ZM57.6244 7.20171H60.2425C61.6869 7.20171 62.8607 8.37553 62.8607 9.81989C62.8607 11.2643 61.6869 12.4381 60.2425 12.4381H57.6244V7.20171Z" fill="#101114"/>
<path d="M83.5401 18.5472H85.5561L81.1139 10.8584L84.2339 5.45625H82.2179L78.5699 11.7704V5.45625H76.8245V18.5472H77.6972C78.1772 18.5472 78.5699 18.1544 78.5699 17.6744V15.2613L80.1059 12.5995L83.5401 18.5428V18.5472Z" fill="#101114"/>
<path d="M106.501 5.45625H104.485L102.138 9.52316L99.7902 5.45625H97.7742L101.265 11.5043V18.5472H102.138C102.618 18.5472 103.011 18.1544 103.011 17.6744V11.5043L106.501 5.45625Z" fill="#101114"/>
<path d="M10.2501 4.36914C7.03849 5.77859 5.01813 9.22586 6.19195 12.647C6.90322 14.7153 8.33449 16.1946 10.4639 16.9495C14.1818 18.2673 18.0567 15.3699 17.6247 11.5997C17.437 9.99823 16.6254 8.78077 14.9759 8.27023C13.7498 7.89496 12.5716 8.0695 11.6072 8.96405C10.7956 9.71896 10.4814 10.6528 10.8087 11.7393C10.9876 12.3371 11.4196 12.708 12.0087 12.8826C12.5236 13.0397 12.925 12.8128 13.2349 12.3851C13.1738 12.2804 13.117 12.167 13.0429 12.071C12.6414 11.5517 12.9643 10.7968 13.3134 10.4826C13.7847 10.055 14.5483 10.0157 15.0545 10.3691C15.8661 10.9408 16.2414 12.4637 15.7963 13.4237C15.0545 15.0251 13.1476 15.9546 11.4021 15.5008C8.64431 14.7851 7.28286 12.0579 8.17304 9.42659C9.35558 5.92696 13.3352 4.39532 16.7258 6.07532C19.4661 7.43241 20.4829 9.7975 20.3781 12.6208C20.1992 17.2637 15.517 20.7066 10.8174 19.812C6.26177 18.9437 2.87558 14.58 3.11995 10.4564C3.20722 8.9335 3.55195 7.50659 4.32867 6.1975C6.34904 2.7895 9.50831 1.18805 13.4574 0.926229C14.4959 0.85641 15.5476 0.913138 16.5381 0.913138C16.4858 0.89132 16.3592 0.825865 16.2327 0.782229C14.2996 0.0622287 12.3054 -0.169044 10.2632 0.12332C8.99777 0.280411 7.82395 0.625138 6.76358 1.1095C6.74613 1.1095 6.71995 1.11823 6.69376 1.13132C6.21813 1.33641 6.13522 0.869501 5.96504 0.725501C5.79922 0.590229 5.82104 0.760411 5.82104 0.760411C5.96504 1.4455 5.60286 1.72041 5.55486 1.75532C5.25376 1.94296 4.96576 2.14368 4.68649 2.3575C4.67776 2.3575 4.66904 2.3575 4.66467 2.36623C4.00576 2.66732 3.73086 2.15677 3.42976 2.00405C3.10686 1.84259 3.22904 2.10877 3.22904 2.10877C3.62613 2.89859 3.2814 3.57496 3.21595 3.68405C2.93667 3.98514 2.67486 4.30368 2.42613 4.63532C2.39995 4.65277 2.37376 4.66586 2.34322 4.69205C1.6974 5.27677 1.19122 4.81423 0.794128 4.72696C0.353401 4.63096 0.602128 4.91896 0.602128 4.91896C1.41813 5.75677 1.16067 6.76041 1.16067 6.76041C0.117765 9.0295 -0.257508 11.652 0.178855 14.2833C1.61449 22.9364 12.2574 27.0251 19.2305 21.4484C21.4952 19.6375 23.0661 16.151 23.2319 13.2666C23.3498 11.2157 22.717 9.35677 21.5476 7.67677C19.069 4.10296 14.1163 2.67168 10.2458 4.36914H10.2501Z" fill="#5D42FF"/>
</g>
<defs>
<clipPath id="clip0_12234_29655">
<rect width="106.5" height="24" fill="white"/>
</clipPath>
</defs>
</svg>
