<svg width="13" height="12" viewBox="0 0 13 12" fill="none" xmlns="http://www.w3.org/2000/svg">
<g id="suggest-close">
<g id="Union">
<path d="M3.09819 9.9774C3.03962 10.036 2.94464 10.036 2.88606 9.9774L2.35573 9.44707C2.29715 9.38849 2.29715 9.29352 2.35573 9.23494L5.59072 5.99995L2.3557 2.76493C2.29712 2.70635 2.29712 2.61137 2.3557 2.55279L2.88603 2.02246C2.94461 1.96389 3.03958 1.96389 3.09816 2.02246L6.33319 5.25749L9.56822 2.02245C9.6268 1.96387 9.72178 1.96387 9.78035 2.02245L10.3107 2.55278C10.3693 2.61136 10.3693 2.70633 10.3107 2.76491L7.07565 5.99995L10.3107 9.23496C10.3692 9.29353 10.3692 9.38851 10.3107 9.44709L9.78032 9.97742C9.72174 10.036 9.62677 10.036 9.56819 9.97742L6.33319 6.74241L3.09819 9.9774Z" fill="white"/>
</g>
</g>
</svg>
