<svg width="20" height="20" viewBox="0 0 20 20" fill="none" xmlns="http://www.w3.org/2000/svg">
<g id="suggest-close">
<g id="Union">
<path d="M4.60829 16.6291C4.51066 16.7267 4.35237 16.7267 4.25473 16.6291L3.37085 15.7452C3.27322 15.6476 3.27322 15.4893 3.37085 15.3916L8.7625 10L3.3708 4.60829C3.27317 4.51066 3.27317 4.35237 3.3708 4.25474L4.25468 3.37086C4.35231 3.27322 4.51061 3.27322 4.60824 3.37086L9.99994 8.76256L15.3917 3.37083C15.4893 3.2732 15.6476 3.2732 15.7452 3.37083L16.6291 4.25471C16.7267 4.35235 16.7267 4.51064 16.6291 4.60827L11.2374 10L16.6291 15.3917C16.7267 15.4893 16.7267 15.6476 16.6291 15.7452L15.7452 16.6291C15.6475 16.7267 15.4892 16.7267 15.3916 16.6291L9.99994 11.2374L4.60829 16.6291Z" fill="#55585E"/>
</g>
</g>
</svg>
