<svg width="14" height="14" viewBox="0 0 14 14" fill="none" xmlns="http://www.w3.org/2000/svg">
<g id="suggest-circle question">
<path id="Union" d="M7 12.0312C9.77868 12.0312 12.0312 9.77868 12.0312 7C12.0312 4.22132 9.77868 1.96875 7 1.96875C4.22132 1.96875 1.96875 4.22132 1.96875 7C1.96875 9.77868 4.22132 12.0312 7 12.0312ZM7 13.125C3.61726 13.125 0.875 10.3827 0.875 7C0.875 3.61725 3.61726 0.875 7 0.875C10.3827 0.875 13.125 3.61725 13.125 7C13.125 10.3827 10.3827 13.125 7 13.125ZM7.85872 9.71251C7.85872 10.1474 7.50615 10.5 7.07122 10.5C6.6363 10.5 6.28372 10.1474 6.28372 9.71251C6.28372 9.27759 6.6363 8.92501 7.07122 8.92501C7.50615 8.92501 7.85872 9.27759 7.85872 9.71251ZM6.0566 5.75328C6.15325 5.75328 6.22954 5.67389 6.25128 5.57972C6.32996 5.23891 6.63533 4.98484 7.00004 4.98484C7.42444 4.98484 7.76848 5.32888 7.76848 5.75328C7.76848 5.99841 7.65433 6.21657 7.47408 6.35816C7.28256 6.50862 7.03659 6.70891 6.83923 6.95154C6.63948 7.19711 6.45317 7.53015 6.45317 7.9436V8.09376C6.45317 8.19041 6.53152 8.26875 6.62817 8.26875H7.37192C7.46857 8.26875 7.54692 8.19041 7.54692 8.09376V7.9436C7.54692 7.87381 7.57654 7.77841 7.68772 7.64173C7.80129 7.50211 7.96126 7.36633 8.14975 7.21826C8.58259 6.87823 8.86223 6.34826 8.86223 5.75328C8.86223 4.72482 8.0285 3.89109 7.00004 3.89109C6.03054 3.89109 5.23408 4.63197 5.14595 5.57845C5.13699 5.67468 5.2162 5.75328 5.31285 5.75328H6.0566Z" fill="#979AA1"/>
</g>
</svg>
