<svg width="480" height="430" viewBox="0 0 480 430" fill="none" xmlns="http://www.w3.org/2000/svg">
<g opacity="0.8">
<path d="M135.778 428.933L131.813 424.958H120.483L114.819 420.982H109.154V414.167L104.056 409.056H100.657" stroke="#3D43DE" stroke-width="0.5"/>
<path d="M58.7398 403.944L55.341 400.537H52.5087L50.8094 401.672L49.6765 403.376L44.5784 399.401V389.178H36.6335V376.627H32.3072L30.0939 378.846L28.4842 380.864L24.4597 381.57V391.052L28.4842 394.078H33.2128L35.3256 393.473L40.4567 400.537L46.7951 405.477L48.4049 408.402H54.3409" stroke="#3D43DE" stroke-width="0.5"/>
<path d="M1.09102 356.11H18.2816L23.5395 361.584L25.5619 365.639M25.5619 367.872H28.0112L30.1794 367.303V363.524V353.069L39.7281 343.308L40.7908 336.306L54.2267 321.085H61.6658L67.8903 314.16L63.7912 309.289L65.5371 306.473H77.4548L82.1612 311.268L87.9302 306.016L73.2039 292.24V277.323L65.1576 269.028H56.8835L48.6854 275.193L27.8863 271.159H16.7277L11.9455 278.161L14.5264 284.63L10.4273 290.338L0.255493 289.425V262.179H3.89889L12.4766 268.038L22.8002 266.744L33.9588 255.937H41.4738L47.8501 249.088V238.89L43.1438 234.78L36.7007 231.54L33.9588 221.298V209.527L39.1402 204.024L36.7007 193.934L38.3779 183.846L55.1497 175.896V183.846L68.872 198.826L89.913 202.647L88.3883 205.399L79.0876 206.469L74.9709 219.921L60.3337 217.781V226.648L52.5577 228.329L49.9657 234.78L52.5577 238.89H63.8405V254.986H56.2512L65.6934 265.174L77.9581 253.494L78.3173 238.574L74.5199 234.972L81.9077 226.648L93.6466 224.457L101.001 231.54L97.8896 234.972V250.832L93.6466 255.937V273.662L104.113 283.872L119.67 269.028V261.751L129.146 251.683H143.714V235.801L171.657 238.574L177.969 257.424" stroke="#3D43DE" stroke-width="0.5"/>
<path d="M277.218 194.553L296.798 191.389L304.091 164.201L288.463 161.607L290.842 147.198L282.483 136.18L275.323 134.992L263.258 117.178L275.014 108.494L292.455 111.389L296.785 116.42L312.392 119.01L315.261 122.649L323.431 116.531L323.193 104.562L316.209 95.8944L312.045 99.0623L297.421 96.2698L287.932 82.2306L299.499 74.5549L298.259 82.0618L314.098 84.6911L315.941 73.5308L320.408 71.6382L326.333 75.2558L326.717 83.222L335.442 84.6703L330.945 98.799L343.51 105.068L343.044 114.443L345.502 116.4L352.7 96.2123L369.682 85.0858L377.504 86.3844L372.421 68.4962L362.768 65.1892L352.441 65.9542L347.873 59.9302L336.29 58.0075L325.764 59.0466L321.523 64.8904L316.71 68.8743L306.675 67.2086L300.977 59.7826L302.205 52.3493L293.393 39.5466L293.806 29.1237L300.973 21.5963L301.568 17.9925L274.758 13.5419L272.198 23.4541L277.145 28.441L283.932 26.9448L290.041 32.8189L288.218 43.8563L280.851 63.7706L285.579 72.8868L284.227 81.071L274.75 87.6749L260.072 85.2383L244.111 97.5544L239.886 90.9902L245.373 87.1182L247.319 75.33L244.833 73.143L239.371 76.4019L233.573 69.1138L234.789 61.7556L220.948 63.7706L208.423 83.222" stroke="#3D43DE" stroke-width="0.5"/>
<path d="M240.204 267.141L260.772 246.657H279.694L283.945 250.507H292.034V262.742L312.191 242.534L326.999 241.295V234.422L334.283 214.808L358.51 218.341L366.439 205.534L395.072 202L399.037 218.341L406.525 246.657L419.3 228.058H448.373L473.041 267.141L479.648 292.539L469.076 310.647L459.385 298.28L435.598 285.914L421.502 292.539L399.037 267.141L383.619 276.198L369.523 298.28L355.427 289.889L358.51 267.141H326.999L318.865 276.198L299.924 289.889V301.372" stroke="#3D43DE" stroke-width="0.5"/>
<path d="M476.551 0.314575L440.279 3.20083V28.0227H424.734L421.28 45.3399V74.202H440.279V108.259L405.735 103.064L391.341 108.259L381.554 119.227L370.039 133.658L344.131 142.894V161.365L356.221 170.024H378.1H412.644L428.765 196L443.158 191.959L433.946 161.365L405.735 142.894L428.765 136.544L454.673 133.658L462.158 112.877L459.279 67.8523V36.6813L471.37 41.8765V61.5027H479.43" stroke="#3D43DE" stroke-width="0.5"/>
<path d="M136.02 358.982L115.607 345.005L101.666 351.993L87.2269 348.998L82.2482 358.982L94.6953 364.972L108.138 362.476L122.577 364.972V383.941L108.138 395.422L119.092 403.409L136.02 395.422" stroke="#3D43DE" stroke-width="0.5"/>
<path d="M111.126 103.398V123.865L122.079 131.851H139.007V153.816L125.066 162.801V176.279L144.982 181.77V194.25L139.007 200.24L133.531 211.721L144.982 216.214L165.396 221.705L169.877 235.682" stroke="#3D43DE" stroke-width="0.5"/>
<path d="M192.282 222.205H198.754V211.222L201.742 192.752V177.777L196.265 169.79L201.742 148.325L224.147 126.36H239.083H248.543L258.999 139.339L263.978 155.313L255.016 159.806L248.543 148.325H239.083L248.543 162.302L242.071 172.785L230.121 166.295H224.147L214.189 172.785L230.121 192.752V200.24V214.716L242.071 229.692L224.147 237.18L214.189 242.671L198.754 247.164" stroke="#3D43DE" stroke-width="0.5"/>
</g>
</svg>
