<svg width="270" height="278" viewBox="0 0 270 278" fill="none" xmlns="http://www.w3.org/2000/svg">
<path opacity="0.03" d="M119.177 50.5366C82.0278 66.8398 58.6582 106.715 72.2358 146.286C80.4631 170.211 97.0187 187.322 121.65 196.054C164.654 211.297 209.476 177.782 204.479 134.173C202.308 115.649 192.92 101.566 173.841 95.6607C159.657 91.3199 146.029 93.3389 134.874 103.686C125.486 112.418 121.852 123.22 125.638 135.788C127.707 142.703 132.704 146.993 139.518 149.012C145.474 150.829 150.118 148.204 153.701 143.258C152.995 142.047 152.339 140.734 151.481 139.624C146.837 133.617 150.572 124.885 154.61 121.251C160.061 116.305 168.894 115.85 174.749 119.939C184.137 126.551 188.478 144.167 183.33 155.271C174.749 173.795 152.692 184.546 132.502 179.297C100.602 171.019 84.8544 139.472 95.1512 109.036C108.83 68.5559 154.862 50.8394 194.081 70.2721C225.779 85.9696 237.539 113.327 236.328 145.984C234.259 199.688 180.1 239.513 125.739 229.165C73.0434 219.121 33.8753 168.647 36.7018 120.948C37.7113 103.333 41.6988 86.8277 50.6832 71.6853C74.0529 32.2649 110.596 13.7408 156.276 10.7123C168.289 9.90472 180.453 10.5609 191.911 10.5609C191.305 10.3085 189.841 9.5514 188.377 9.04666C166.017 0.71839 142.95 -1.95675 119.328 1.42503C104.691 3.24211 91.1132 7.22958 78.8479 12.8322C78.646 12.8322 78.3432 12.9332 78.0403 13.0846C72.5386 15.4569 71.5796 10.0561 69.6111 8.39049C67.6931 6.82579 67.9455 8.79429 67.9455 8.79429C69.6111 16.7188 65.4218 19.8987 64.8665 20.3024C61.3838 22.4728 58.0525 24.7947 54.8221 27.2679C54.7212 27.2679 54.6202 27.2679 54.5698 27.3689C46.9481 30.8516 43.7682 24.9461 40.2855 23.1795C36.5504 21.3119 37.9637 24.3909 37.9637 24.3909C42.5569 33.5267 38.5694 41.3503 37.8123 42.6121C34.5819 46.0948 31.5534 49.7795 28.6764 53.6155C28.3736 53.8174 28.0707 53.9688 27.7174 54.2717C20.2472 61.0353 14.3922 55.685 9.799 54.6755C4.70109 53.5651 7.57812 56.8964 7.57812 56.8964C17.0168 66.5874 14.0388 78.1965 14.0388 78.1965C1.97547 104.443 -2.36533 134.778 2.68211 165.214C19.2882 265.305 142.395 312.6 223.053 248.093C249.249 227.146 267.42 186.817 269.338 153.454C270.701 129.731 263.382 108.229 249.855 88.7962C221.186 47.4577 163.897 30.9021 119.126 50.5366H119.177Z" fill="#5D42FF"/>
</svg>
