<svg width="40" height="40" viewBox="0 0 40 40" fill="none" xmlns="http://www.w3.org/2000/svg">
<rect x="0.000976562" y="9.15527e-05" width="40" height="40" rx="6" fill="#5D42FF"/>
<path fill-rule="evenodd" clip-rule="evenodd" d="M19.024 11.7294C15.5707 13.2553 13.3989 16.9874 14.6633 20.6962C15.4278 22.939 16.9686 24.5372 19.2535 25.3541C23.249 26.7828 27.42 23.6414 26.9522 19.5581C26.7536 17.8226 25.8787 16.5012 24.1018 15.9544C22.7801 15.5476 21.5152 15.7377 20.4831 16.7051C19.6071 17.5253 19.275 18.5356 19.6258 19.7098C19.8194 20.3555 20.2845 20.7573 20.9172 20.949C21.4727 21.1169 21.9024 20.874 22.2334 20.4094C22.1667 20.2972 22.1082 20.1744 22.0271 20.0688C21.5952 19.5064 21.9455 18.6884 22.3189 18.3478C22.8264 17.8849 23.6484 17.8427 24.1885 18.2261C25.0645 18.8468 25.4627 20.4978 24.9867 21.5336C24.1901 23.2663 22.1419 24.2749 20.2624 23.7842C17.2951 23.0096 15.8322 20.0582 16.7898 17.2053C18.0625 13.4143 22.3399 11.756 25.9851 13.5743C28.932 15.0436 30.0259 17.6093 29.9084 20.6634C29.7159 25.692 24.6789 29.4224 19.628 28.4527C14.7294 27.5124 11.0919 22.7873 11.3528 18.3189C11.4488 16.669 11.8135 15.1242 12.6514 13.7066C14.8315 10.02 18.2274 8.28511 22.4751 8.00448C23.5932 7.93057 24.7208 7.99337 25.786 7.99392C25.7275 7.96781 25.594 7.90168 25.455 7.84944C23.3808 7.06701 21.2372 6.8175 19.0405 7.13314C17.6785 7.30207 16.4213 7.67273 15.2783 8.20287C15.2574 8.2062 15.2325 8.21343 15.2022 8.22621C14.6881 8.44682 14.602 7.94002 14.4194 7.78665C14.2418 7.63772 14.265 7.82277 14.265 7.82277C14.42 8.56574 14.0316 8.86527 13.9792 8.90194C13.6554 9.10366 13.3448 9.3215 13.0447 9.55045C13.0359 9.55434 13.0293 9.55434 13.0199 9.55878C12.3111 9.88443 12.0165 9.33428 11.6905 9.16701C11.3457 8.9903 11.4759 9.28038 11.4759 9.28038C11.9028 10.135 11.5343 10.8664 11.4654 10.9897C11.1631 11.3181 10.8801 11.6632 10.6153 12.0217C10.5877 12.0394 10.5607 12.0561 10.5292 12.0845C9.83307 12.7185 9.29136 12.2167 8.86108 12.1222C8.38667 12.0189 8.65532 12.3317 8.65532 12.3317C9.53298 13.237 9.25551 14.3256 9.25551 14.3256L9.25771 14.3267C8.13016 16.7813 7.72525 19.622 8.19359 22.4739C9.73323 31.848 21.1792 36.2753 28.6821 30.2365C31.1187 28.2754 32.809 24.4978 32.9871 21.3725C33.114 19.153 32.4327 17.1386 31.1767 15.3148C28.5117 11.4448 23.185 9.89054 19.024 11.7294Z" fill="white"/>
</svg>
